<?xml version="1.0" encoding="iso-8859-1"?>
<!-- Uploaded to: SVG Repo, www.svgrepo.com, Generator: SVG Repo Mixer Tools -->
<svg fill="#fff" height="800px" width="800px" version="1.1" id="Layer_1" xmlns="http://www.w3.org/2000/svg" xmlns:xlink="http://www.w3.org/1999/xlink" 
	 viewBox="0 0 512 512" xml:space="preserve">
<g>
	<g>
		<g>
			<path d="M490.667,234.667h-64V35.371C426.667,14.629,412.038,0,391.296,0H37.589C16.826,0,0,16.826,0,37.589v436.821
				C0,495.174,16.826,512,37.589,512H448c35.355,0,64-28.645,64-64V256C512,244.218,502.449,234.667,490.667,234.667z
				 M42.667,42.667H384V256v192c0,0.958,0.026,1.912,0.072,2.863c0.284,6.453,1.526,12.653,3.582,18.471H42.667V42.667z
				 M469.333,448c0,11.791-9.542,21.333-21.333,21.333c-0.481,0-0.951-0.041-1.423-0.072c-9.603-0.862-18.976-10.235-19.838-19.838
				c-0.031-0.473-0.072-0.943-0.072-1.423V277.333h42.667V448z"/>
			<path d="M85.333,213.333h128c11.782,0,21.333-9.551,21.333-21.333V85.333c0-11.782-9.551-21.333-21.333-21.333h-128
				C73.551,64,64,73.551,64,85.333V192C64,203.782,73.551,213.333,85.333,213.333z M106.667,106.667H192v64h-85.333V106.667z"/>
			<path d="M341.333,256h-256C73.551,256,64,265.551,64,277.333c0,11.782,9.551,21.333,21.333,21.333h256
				c11.782,0,21.333-9.551,21.333-21.333C362.667,265.551,353.115,256,341.333,256z"/>
			<path d="M170.667,320H85.333C73.551,320,64,329.551,64,341.333c0,11.782,9.551,21.333,21.333,21.333h85.333
				c11.782,0,21.333-9.551,21.333-21.333C192,329.551,182.449,320,170.667,320z"/>
			<path d="M341.333,85.333h-64c-11.782,0-21.333,9.551-21.333,21.333c0,11.782,9.551,21.333,21.333,21.333h64
				c11.782,0,21.333-9.551,21.333-21.333C362.667,94.885,353.115,85.333,341.333,85.333z"/>
			<path d="M341.333,149.333h-64c-11.782,0-21.333,9.551-21.333,21.333c0,11.782,9.551,21.333,21.333,21.333h64
				c11.782,0,21.333-9.551,21.333-21.333C362.667,158.885,353.115,149.333,341.333,149.333z"/>
			<path d="M341.333,320H256c-11.782,0-21.333,9.551-21.333,21.333c0,11.782,9.551,21.333,21.333,21.333h85.333
				c11.782,0,21.333-9.551,21.333-21.333C362.667,329.551,353.115,320,341.333,320z"/>
			<path d="M170.667,384H85.333C73.551,384,64,393.551,64,405.333c0,11.782,9.551,21.333,21.333,21.333h85.333
				c11.782,0,21.333-9.551,21.333-21.333C192,393.551,182.449,384,170.667,384z"/>
			<path d="M341.333,384H256c-11.782,0-21.333,9.551-21.333,21.333c0,11.782,9.551,21.333,21.333,21.333h85.333
				c11.782,0,21.333-9.551,21.333-21.333C362.667,393.551,353.115,384,341.333,384z"/>
		</g>
	</g>
</g>
</svg>